<svg xmlns="http://www.w3.org/2000/svg" viewBox="0 0 200 200" fill="none" stroke="#2A5C52" stroke-width="1.5" stroke-linecap="round" stroke-linejoin="round">
  <!-- Upward growth / sprout from book -->
  <!-- Open book base -->
  <path d="M40 150 Q100 135 100 135 Q100 135 160 150"/>
  <path d="M40 150 V130 Q100 115 100 115"/>
  <path d="M160 150 V130 Q100 115 100 115"/>
  <line x1="100" y1="115" x2="100" y2="135"/>
  <!-- Growing plant/sprout -->
  <path d="M100 115 V60"/>
  <path d="M100 90 C85 85 80 70 90 60" stroke-width="1.2"/>
  <path d="M100 75 C115 70 120 55 110 45" stroke-width="1.2"/>
  <!-- Small leaves -->
  <path d="M90 60 C92 55 98 55 100 60" fill="#2A5C52" opacity="0.15"/>
  <path d="M110 45 C108 40 102 40 100 45" fill="#2A5C52" opacity="0.15"/>
  <!-- Stars / achievement dots -->
  <circle cx="60" cy="50" r="2" fill="#2A5C52" opacity="0.3"/>
  <circle cx="140" cy="45" r="2.5" fill="#2A5C52" opacity="0.25"/>
  <circle cx="155" cy="65" r="1.5" fill="#2A5C52" opacity="0.35"/>
  <!-- Upward arrow (growth) -->
  <path d="M100 35 L95 42 M100 35 L105 42" stroke-width="1.2"/>
</svg>
